<svg xmlns="http://www.w3.org/2000/svg" xmlns:xlink="http://www.w3.org/1999/xlink" width="1000" zoomAndPan="magnify" viewBox="0 0 750 749.999995" height="1000" preserveAspectRatio="xMidYMid meet" version="1.0"><defs><clipPath id="5c8f604b24"><path d="M 225 334.0625 L 525 334.0625 L 525 415.8125 L 225 415.8125 Z M 225 334.0625 " clip-rule="nonzero"/></clipPath><clipPath id="ad3f315194"><path d="M 15.792969 15.792969 L 734.292969 15.792969 L 734.292969 734.292969 L 15.792969 734.292969 Z M 15.792969 15.792969 " clip-rule="nonzero"/></clipPath></defs><rect x="-75" width="900" fill="#ffffff" y="-74.999999" height="899.999994" fill-opacity="1"/><g clip-path="url(#5c8f604b24)"><path fill="#416acc" d="M 374.058594 334.882812 C 373.355469 335 373.003906 335.117188 372.886719 335.234375 C 372.769531 335.351562 372.414062 335.46875 371.59375 335.46875 C 370.773438 335.46875 369.949219 335.585938 369.128906 335.820312 C 368.304688 336.054688 367.71875 336.171875 367.367188 336.054688 C 367.128906 336.054688 367.011719 335.9375 366.777344 335.9375 C 366.777344 336.054688 366.777344 336.054688 366.777344 336.171875 C 366.777344 336.289062 366.777344 336.289062 366.777344 336.410156 C 366.660156 336.410156 366.542969 336.410156 366.425781 336.410156 C 366.191406 336.410156 365.957031 336.527344 365.722656 336.761719 C 365.484375 336.996094 365.015625 337.113281 364.3125 337.230469 C 363.605469 337.347656 363.253906 337.464844 363.019531 337.582031 C 362.785156 337.699219 362.667969 337.816406 362.550781 337.816406 C 362.433594 337.816406 361.726562 338.050781 360.90625 338.519531 C 359.964844 338.988281 359.378906 339.222656 358.910156 339.105469 C 358.4375 339.105469 357.96875 339.105469 357.5 339.339844 C 357.027344 339.574219 356.792969 339.691406 356.675781 340.042969 C 356.675781 340.160156 356.675781 340.394531 356.558594 340.511719 C 356.441406 340.511719 356.441406 340.511719 356.441406 340.394531 C 356.324219 340.277344 356.089844 340.511719 355.972656 340.863281 C 355.738281 341.21875 355.148438 341.6875 354.328125 341.921875 C 353.503906 342.15625 352.917969 342.625 352.449219 343.210938 C 351.976562 343.679688 351.507812 344.03125 351.039062 344.148438 C 350.453125 344.265625 350.097656 344.5 349.746094 344.851562 C 349.394531 345.203125 349.160156 345.558594 349.160156 345.792969 C 349.160156 346.027344 348.808594 346.378906 348.453125 346.847656 C 347.984375 347.316406 347.75 347.550781 347.515625 347.550781 C 347.28125 347.550781 347.046875 347.902344 346.808594 348.488281 C 346.574219 349.074219 346.222656 349.542969 345.753906 349.777344 C 345.285156 350.015625 344.929688 350.484375 344.695312 351.304688 C 344.460938 352.125 344.109375 352.828125 343.640625 353.53125 C 343.167969 354.234375 342.816406 354.589844 342.582031 354.824219 C 342.347656 354.941406 342.230469 355.175781 342.230469 355.644531 C 342.230469 355.996094 341.996094 356.464844 341.640625 356.933594 C 341.289062 357.402344 341.171875 357.871094 341.171875 358.222656 C 341.171875 358.574219 341.054688 358.925781 340.820312 359.164062 C 340.585938 359.398438 340.351562 359.867188 340.117188 360.570312 C 339.878906 361.273438 339.644531 361.625 339.527344 361.859375 C 339.410156 361.976562 339.175781 362.445312 338.941406 363.382812 C 338.707031 364.324219 338.589844 364.910156 338.707031 365.144531 C 338.824219 365.496094 338.707031 365.730469 338.472656 365.964844 C 338.234375 366.199219 338.117188 366.785156 338 367.605469 C 338 368.429688 337.765625 368.898438 337.648438 369.132812 C 337.414062 369.367188 337.414062 369.601562 337.414062 370.070312 C 337.414062 370.539062 337.414062 370.773438 337.296875 370.890625 C 337.179688 371.007812 337.179688 371.476562 337.296875 372.179688 C 337.414062 372.886719 337.296875 373.941406 337.0625 375.230469 C 336.828125 376.519531 336.589844 377.34375 336.589844 377.8125 C 336.589844 378.164062 336.710938 378.515625 336.828125 378.515625 C 336.945312 378.632812 336.945312 378.867188 336.945312 379.453125 C 336.945312 379.804688 336.828125 380.039062 336.828125 380.390625 C 336.945312 380.390625 336.945312 380.390625 337.0625 380.390625 C 337.179688 380.390625 337.296875 380.742188 337.296875 381.328125 C 337.414062 381.917969 337.414062 382.386719 337.296875 382.855469 C 337.296875 383.324219 337.296875 383.675781 337.53125 383.792969 C 337.765625 384.027344 337.882812 384.730469 338 386.136719 C 338.234375 387.546875 338.472656 388.601562 338.824219 389.421875 C 339.175781 390.242188 339.410156 390.949219 339.527344 391.652344 C 339.644531 392.355469 339.878906 392.824219 340.117188 392.941406 C 340.46875 393.175781 340.585938 393.410156 340.585938 393.878906 C 340.585938 394.347656 340.820312 394.933594 341.40625 395.992188 C 341.878906 397.046875 342.347656 397.632812 342.816406 397.867188 C 343.285156 398.101562 343.402344 398.335938 343.402344 398.570312 C 343.402344 398.804688 343.523438 399.039062 343.875 399.273438 C 344.226562 399.507812 344.226562 399.742188 344.226562 399.863281 C 344.226562 399.863281 344.226562 399.980469 344.109375 399.980469 C 344.226562 400.097656 344.460938 400.097656 344.578125 400.097656 C 344.929688 400.214844 345.046875 400.449219 345.046875 400.683594 C 345.164062 400.917969 345.402344 401.269531 345.988281 401.621094 C 346.457031 401.972656 346.808594 402.441406 346.929688 402.910156 C 347.046875 403.378906 347.164062 403.613281 347.398438 403.730469 C 347.75 403.730469 347.984375 404.082031 348.335938 404.4375 C 348.691406 404.90625 348.925781 405.023438 349.160156 405.023438 C 349.394531 405.023438 349.628906 405.257812 349.980469 405.726562 C 350.335938 406.195312 350.804688 406.546875 351.273438 406.664062 C 351.742188 406.78125 352.097656 407.132812 352.449219 407.601562 C 352.800781 408.070312 353.152344 408.421875 353.859375 408.539062 C 354.5625 408.773438 355.03125 409.011719 355.382812 409.363281 C 355.738281 409.714844 356.089844 409.832031 356.324219 409.832031 C 356.558594 409.832031 356.792969 410.066406 357.148438 410.417969 C 357.5 410.769531 357.96875 411.003906 358.789062 411.121094 C 359.613281 411.238281 360.199219 411.472656 360.554688 411.941406 C 360.90625 412.410156 361.257812 412.527344 361.492188 412.527344 C 361.726562 412.527344 361.960938 412.644531 361.960938 412.761719 C 362.078125 412.878906 362.550781 412.878906 363.605469 412.878906 C 364.546875 412.878906 365.484375 412.996094 366.191406 413.347656 C 366.894531 413.703125 367.835938 413.820312 368.890625 414.054688 C 369.949219 414.171875 370.535156 414.40625 370.652344 414.523438 C 370.773438 414.640625 371.007812 414.640625 371.476562 414.40625 C 371.945312 414.171875 372.414062 414.171875 372.886719 414.40625 C 373.355469 414.523438 373.824219 414.640625 374.414062 414.640625 C 375 414.640625 375.351562 414.523438 375.703125 414.40625 C 376.058594 414.171875 376.761719 414.171875 377.703125 414.40625 C 378.640625 414.523438 379.226562 414.523438 379.582031 414.289062 C 379.933594 414.054688 380.285156 413.9375 380.871094 413.9375 C 381.226562 413.9375 381.460938 413.9375 381.8125 413.9375 C 381.8125 413.820312 381.695312 413.820312 381.695312 413.703125 C 381.695312 413.585938 381.578125 413.585938 381.578125 413.585938 C 381.695312 413.585938 381.8125 413.703125 381.8125 413.703125 C 381.8125 413.703125 381.929688 413.820312 382.046875 413.820312 C 382.046875 413.703125 382.046875 413.703125 382.046875 413.703125 C 382.046875 413.703125 382.046875 413.585938 382.046875 413.46875 C 382.28125 413.46875 382.515625 413.46875 382.871094 413.46875 C 383.457031 413.46875 383.808594 413.347656 384.160156 413.113281 C 384.515625 412.878906 384.867188 412.761719 385.453125 412.644531 C 385.921875 412.527344 386.511719 412.292969 387.097656 411.941406 C 387.566406 411.472656 388.273438 411.238281 388.976562 410.886719 C 389.683594 410.535156 390.269531 410.417969 390.855469 410.300781 C 391.328125 410.300781 391.796875 410.066406 392.03125 409.832031 C 392.265625 409.480469 392.5 409.480469 392.851562 409.480469 C 393.207031 409.597656 393.441406 409.480469 393.675781 409.128906 C 393.910156 408.773438 394.144531 408.65625 394.261719 408.65625 C 394.378906 408.65625 394.613281 408.421875 394.96875 407.835938 C 395.320312 407.25 395.671875 406.78125 396.257812 406.429688 C 396.847656 405.960938 397.199219 405.609375 397.433594 405.257812 C 397.550781 404.90625 398.140625 404.554688 398.84375 404.082031 C 399.546875 403.730469 400.019531 403.261719 400.136719 402.910156 C 400.253906 402.558594 400.488281 402.207031 400.957031 401.855469 C 401.308594 401.503906 401.546875 401.269531 401.425781 401.152344 C 401.308594 401.035156 401.546875 400.800781 402.015625 400.332031 C 402.484375 399.863281 402.71875 399.625 402.71875 399.390625 C 402.71875 399.15625 402.953125 398.804688 403.308594 398.453125 C 403.777344 397.984375 404.128906 397.28125 404.480469 396.34375 C 404.832031 395.289062 405.304688 394.464844 405.890625 393.644531 C 406.476562 392.824219 406.832031 392.238281 406.832031 391.886719 C 406.832031 391.652344 406.832031 391.535156 406.832031 391.300781 C 406.949219 391.300781 406.949219 391.300781 407.066406 391.300781 C 407.183594 391.300781 407.417969 390.832031 407.652344 389.773438 C 408.003906 388.71875 408.238281 388.015625 408.59375 387.78125 C 408.945312 387.546875 409.179688 386.960938 409.53125 386.140625 C 409.882812 385.316406 410.003906 384.496094 410.003906 383.441406 C 410.003906 382.503906 410.121094 381.683594 410.472656 380.859375 C 410.824219 380.039062 410.824219 379.570312 410.707031 379.453125 C 410.589844 379.335938 410.589844 378.867188 410.824219 378.164062 C 411.058594 377.460938 411.175781 376.988281 411.058594 376.636719 C 410.941406 376.285156 411.058594 375.816406 411.292969 375.113281 C 411.527344 374.527344 411.644531 374.058594 411.527344 373.824219 C 411.410156 373.589844 411.527344 373.472656 411.644531 373.355469 C 411.765625 373.355469 411.765625 372.886719 411.527344 372.0625 C 411.410156 371.242188 411.292969 370.421875 411.410156 369.601562 C 411.527344 368.78125 411.527344 367.957031 411.292969 366.902344 C 411.058594 365.964844 411.058594 365.261719 411.058594 364.910156 C 411.175781 364.558594 411.058594 364.089844 410.824219 363.738281 C 410.589844 363.382812 410.472656 362.796875 410.589844 362.09375 C 410.707031 361.390625 410.472656 360.804688 410.121094 360.21875 C 409.765625 359.632812 409.414062 359.164062 409.414062 358.457031 C 409.414062 357.753906 409.179688 357.402344 408.945312 357.167969 C 408.710938 357.050781 408.59375 356.816406 408.59375 356.582031 C 408.59375 356.347656 408.476562 356.113281 408.359375 355.996094 C 408.238281 355.878906 408.003906 355.644531 408.003906 355.175781 C 407.886719 354.707031 407.652344 354.117188 407.183594 353.179688 C 406.714844 352.242188 406.359375 351.773438 406.242188 351.65625 C 406.125 351.539062 405.890625 351.304688 405.65625 350.71875 C 405.421875 350.132812 405.1875 349.777344 404.832031 349.542969 C 404.480469 349.308594 404.363281 349.191406 404.363281 348.957031 C 404.363281 348.839844 404.246094 348.605469 403.894531 348.371094 C 403.542969 348.136719 403.308594 347.902344 403.308594 347.667969 C 403.308594 347.433594 402.953125 347.082031 402.601562 346.730469 C 402.132812 346.378906 401.78125 346.027344 401.546875 346.027344 C 401.191406 345.910156 400.957031 345.675781 400.722656 345.085938 C 400.488281 344.5 400.136719 344.148438 399.785156 344.03125 C 399.429688 343.914062 399.195312 343.796875 399.195312 343.679688 C 399.195312 343.5625 398.609375 343.09375 397.550781 342.390625 C 396.496094 341.6875 395.671875 341.21875 395.320312 341.101562 C 394.96875 341.101562 394.734375 340.867188 394.613281 340.746094 C 394.496094 340.511719 394.261719 340.394531 393.910156 340.394531 C 393.558594 340.394531 393.441406 340.277344 393.441406 340.160156 C 393.441406 340.042969 393.441406 340.042969 393.441406 339.925781 C 393.207031 339.925781 393.089844 339.925781 392.972656 339.925781 C 392.617188 339.925781 392.265625 339.691406 391.796875 339.339844 C 391.328125 338.988281 390.503906 338.519531 388.976562 338.285156 C 387.449219 338.050781 386.511719 337.699219 385.921875 337.347656 C 385.335938 336.996094 384.867188 336.878906 384.277344 336.878906 C 383.691406 336.878906 382.753906 336.644531 381.34375 336.292969 C 380.050781 335.9375 379.109375 335.820312 378.757812 335.820312 C 378.40625 335.9375 378.171875 335.820312 377.9375 335.585938 C 377.703125 335.46875 377.347656 335.234375 376.761719 335.117188 C 375.46875 334.765625 374.765625 334.765625 374.058594 334.882812 Z M 487.523438 334.882812 C 486.820312 335 486.464844 335.117188 486.347656 335.234375 C 486.230469 335.351562 485.761719 335.46875 484.703125 335.46875 C 483.765625 335.46875 482.824219 335.585938 481.886719 335.703125 C 480.945312 335.820312 480.359375 336.054688 479.890625 336.171875 C 479.535156 336.289062 479.183594 336.410156 479.066406 336.644531 C 478.949219 336.878906 478.480469 336.996094 477.773438 336.996094 C 477.070312 336.996094 476.601562 337.230469 476.363281 337.464844 C 476.128906 337.699219 475.777344 337.816406 475.425781 337.933594 C 475.074219 337.933594 474.484375 338.167969 473.898438 338.519531 C 473.3125 338.871094 472.605469 339.105469 471.667969 339.222656 C 470.726562 339.339844 470.140625 339.691406 469.671875 340.394531 C 469.199219 340.984375 468.496094 341.570312 467.671875 341.921875 C 466.734375 342.273438 466.144531 342.625 465.792969 343.09375 C 465.441406 343.5625 464.972656 343.914062 464.5 344.03125 C 463.914062 344.148438 463.445312 344.382812 463.09375 344.851562 C 462.738281 345.203125 462.503906 345.675781 462.386719 345.910156 C 462.269531 346.144531 461.917969 346.613281 461.332031 347.082031 C 460.742188 347.667969 460.273438 348.019531 460.039062 348.371094 C 459.804688 348.722656 459.6875 348.957031 459.804688 349.074219 C 459.921875 349.191406 459.570312 349.425781 459.097656 349.660156 C 458.628906 349.894531 458.160156 350.484375 457.925781 351.1875 C 457.6875 352.007812 457.21875 352.828125 456.515625 353.648438 C 455.808594 354.589844 455.457031 355.175781 455.457031 355.410156 C 455.457031 355.644531 455.339844 356.113281 454.988281 356.699219 C 454.636719 357.285156 454.519531 357.753906 454.519531 358.105469 C 454.519531 358.457031 454.402344 358.808594 454.046875 359.28125 C 453.695312 359.632812 453.578125 359.984375 453.578125 360.21875 C 453.578125 360.453125 453.460938 360.6875 453.34375 361.15625 C 453.226562 361.625 452.992188 361.742188 452.875 361.742188 C 452.640625 361.859375 452.519531 362.210938 452.402344 362.796875 C 452.167969 363.382812 452.167969 363.972656 452.167969 364.441406 C 452.285156 364.910156 452.050781 365.378906 451.699219 365.847656 C 451.347656 366.316406 451.230469 366.785156 451.230469 367.371094 C 451.230469 367.957031 451.230469 368.429688 450.996094 368.664062 C 450.757812 369.015625 450.640625 369.25 450.757812 369.601562 C 450.878906 369.953125 450.757812 370.304688 450.640625 370.539062 C 450.40625 370.890625 450.40625 371.242188 450.523438 371.828125 C 450.640625 372.414062 450.640625 373.003906 450.40625 373.707031 C 450.171875 374.410156 450.054688 374.996094 450.171875 375.582031 C 450.289062 376.167969 450.171875 376.519531 450.054688 376.753906 C 449.9375 376.871094 449.9375 377.105469 449.9375 377.460938 C 449.9375 377.8125 450.054688 377.929688 450.171875 378.046875 C 450.40625 378.164062 450.40625 378.515625 450.40625 378.984375 C 450.40625 379.453125 450.40625 379.804688 450.523438 379.921875 C 450.640625 380.039062 450.640625 380.273438 450.640625 380.742188 C 450.523438 381.210938 450.757812 382.269531 450.996094 384.027344 C 451.230469 385.785156 451.582031 387.195312 451.933594 388.015625 C 452.285156 388.953125 452.402344 389.539062 452.640625 389.65625 C 452.757812 389.890625 452.875 390.125 452.875 390.59375 C 452.875 391.066406 452.992188 391.535156 453.109375 391.886719 C 453.226562 392.238281 453.460938 392.472656 453.578125 392.472656 C 453.695312 392.472656 454.046875 393.058594 454.285156 393.996094 C 454.636719 395.050781 454.988281 395.757812 455.691406 396.34375 C 456.398438 396.929688 456.75 397.515625 457.101562 398.21875 C 457.453125 398.921875 457.925781 399.507812 458.746094 400.332031 C 459.570312 401.035156 460.039062 401.738281 460.15625 402.207031 C 460.273438 402.675781 460.507812 402.910156 460.625 403.027344 C 460.859375 403.027344 461.09375 403.261719 461.449219 403.613281 C 461.800781 403.964844 462.035156 404.082031 462.386719 404.082031 C 462.738281 404.082031 462.976562 404.316406 463.328125 404.90625 C 463.679688 405.492188 464.148438 405.726562 464.621094 405.84375 C 465.089844 405.960938 465.324219 406.195312 465.441406 406.3125 C 465.558594 406.546875 465.558594 406.664062 465.675781 406.664062 C 465.792969 406.664062 465.792969 406.664062 465.910156 406.664062 C 465.910156 406.78125 465.792969 406.78125 465.792969 406.898438 C 465.792969 406.898438 465.675781 407.015625 465.675781 407.015625 C 465.792969 407.015625 465.792969 406.898438 465.910156 406.898438 C 466.027344 406.898438 466.027344 406.78125 466.027344 406.78125 C 466.144531 406.898438 466.144531 407.015625 466.265625 407.132812 C 466.382812 407.367188 466.617188 407.484375 467.203125 407.601562 C 467.671875 407.71875 468.144531 407.835938 468.496094 408.1875 C 468.847656 408.539062 469.199219 408.65625 469.433594 408.65625 C 469.671875 408.65625 469.90625 408.890625 470.257812 409.246094 C 470.609375 409.714844 471.195312 409.949219 472.019531 410.066406 C 472.957031 410.183594 473.429688 410.417969 473.664062 410.769531 C 473.898438 411.121094 474.484375 411.355469 475.308594 411.472656 C 476.128906 411.589844 476.601562 411.707031 476.601562 411.824219 C 476.71875 411.941406 477.070312 411.941406 477.890625 411.941406 C 478.597656 411.941406 479.066406 411.941406 479.183594 412.175781 C 479.183594 412.292969 479.652344 412.527344 480.476562 412.527344 C 481.296875 412.527344 482.121094 412.761719 482.941406 412.996094 C 483.765625 413.230469 484.351562 413.464844 484.585938 413.464844 C 484.820312 413.464844 485.175781 413.347656 485.410156 413.230469 C 485.644531 413.113281 485.878906 413.113281 486.347656 413.347656 C 486.703125 413.585938 487.171875 413.703125 487.757812 413.703125 C 488.109375 413.703125 488.34375 413.703125 488.699219 413.703125 C 488.699219 413.585938 488.699219 413.585938 488.699219 413.585938 C 488.699219 413.585938 488.699219 413.464844 488.699219 413.347656 C 488.816406 413.347656 488.816406 413.46875 488.933594 413.46875 C 489.050781 413.46875 489.285156 413.46875 489.402344 413.347656 C 489.519531 413.230469 489.871094 413.230469 490.578125 413.230469 C 490.929688 413.230469 491.28125 413.347656 491.632812 413.347656 C 491.632812 413.347656 491.632812 413.230469 491.632812 413.230469 C 491.632812 413.230469 491.632812 413.113281 491.632812 413.113281 C 491.632812 413.113281 491.75 413.230469 491.75 413.230469 C 491.871094 413.347656 491.988281 413.347656 492.222656 413.347656 C 492.457031 413.347656 493.042969 413.347656 493.632812 413.230469 C 494.335938 413.113281 494.6875 412.996094 494.804688 412.761719 C 494.921875 412.527344 495.277344 412.527344 495.980469 412.527344 C 496.683594 412.527344 497.273438 412.410156 497.625 412.058594 C 497.976562 411.707031 498.445312 411.589844 498.800781 411.589844 C 499.152344 411.589844 499.621094 411.355469 499.972656 411.003906 C 500.324219 410.652344 501.148438 410.300781 502.324219 410.066406 C 503.496094 409.832031 504.320312 409.363281 504.90625 409.011719 C 505.496094 408.65625 505.847656 408.421875 506.199219 408.421875 C 506.550781 408.421875 507.375 407.71875 508.78125 406.195312 C 510.191406 404.671875 511.25 403.730469 511.953125 403.378906 C 512.660156 403.027344 513.128906 402.558594 513.128906 402.207031 C 513.246094 401.855469 513.480469 401.503906 513.949219 401.152344 C 514.421875 400.800781 514.890625 400.214844 515.242188 399.390625 C 515.714844 398.570312 516.183594 397.867188 516.652344 397.28125 C 517.238281 396.695312 517.59375 395.992188 517.828125 395.167969 C 518.0625 394.347656 518.414062 393.527344 519 392.941406 C 519.589844 392.238281 520.058594 391.183594 520.527344 389.65625 C 521 388.132812 521.351562 387.429688 521.46875 387.3125 C 521.585938 387.195312 521.820312 386.84375 521.9375 386.375 C 522.054688 385.902344 522.289062 385.433594 522.527344 385.082031 C 522.878906 384.613281 522.996094 383.910156 523.113281 382.855469 C 523.113281 381.683594 523.230469 381.09375 523.464844 380.859375 C 523.582031 380.742188 523.699219 380.390625 523.699219 379.804688 C 523.699219 379.570312 523.699219 379.335938 523.699219 378.984375 C 523.699219 378.984375 523.816406 379.101562 523.816406 379.101562 C 523.816406 379.101562 523.933594 379.21875 523.933594 379.21875 C 523.933594 378.984375 523.816406 378.75 523.816406 378.398438 C 523.699219 377.8125 523.816406 376.871094 524.289062 375.347656 C 524.757812 373.824219 524.875 373.003906 524.875 372.769531 C 524.875 372.652344 524.757812 372.535156 524.757812 372.414062 C 524.757812 372.414062 524.875 372.414062 524.875 372.414062 C 524.992188 372.414062 524.992188 372.414062 524.992188 372.414062 C 524.875 372.0625 524.875 371.59375 524.757812 371.125 C 524.523438 370.304688 524.523438 369.015625 524.523438 367.253906 C 524.523438 365.496094 524.40625 364.207031 524.167969 363.503906 C 523.933594 362.796875 523.816406 362.09375 523.933594 361.625 C 523.933594 361.15625 523.933594 360.570312 523.699219 359.984375 C 523.464844 359.28125 523.230469 358.929688 522.996094 358.808594 C 522.761719 358.691406 522.644531 358.339844 522.644531 357.636719 C 522.644531 356.933594 522.523438 356.582031 522.289062 356.347656 C 522.054688 356.113281 521.820312 355.644531 521.585938 354.941406 C 521.351562 354.234375 521 353.414062 520.527344 352.476562 C 520.058594 351.539062 519.707031 351.070312 519.589844 350.953125 C 519.355469 350.835938 519.238281 350.601562 519 350.015625 C 518.882812 349.425781 518.53125 349.074219 518.179688 348.722656 C 517.828125 348.371094 517.59375 348.136719 517.59375 348.019531 C 517.59375 347.785156 517.476562 347.667969 517.003906 347.433594 C 516.652344 347.199219 516.417969 347.082031 516.300781 346.730469 C 516.183594 346.378906 515.714844 346.027344 515.007812 345.558594 C 514.304688 345.085938 513.949219 344.617188 513.832031 344.148438 C 513.714844 343.679688 513.363281 343.328125 512.894531 343.210938 C 512.425781 343.09375 512.070312 342.742188 511.71875 342.390625 C 511.367188 342.039062 511.015625 341.804688 510.542969 341.453125 C 509.957031 341.21875 509.605469 340.984375 509.253906 340.628906 C 508.902344 340.277344 508.664062 340.160156 508.3125 340.042969 C 507.960938 340.042969 507.726562 339.808594 507.609375 339.574219 C 507.492188 339.339844 507.019531 339.105469 506.316406 338.988281 C 505.613281 338.871094 505.140625 338.636719 505.023438 338.402344 C 504.90625 338.285156 504.90625 338.167969 504.90625 338.050781 C 504.789062 338.050781 504.789062 338.167969 504.671875 338.167969 C 504.554688 338.285156 504.4375 338.167969 504.203125 338.050781 C 504.085938 337.816406 503.261719 337.582031 501.734375 337.230469 C 500.207031 336.878906 499.035156 336.527344 498.09375 336.054688 C 497.15625 335.585938 496.214844 335.351562 495.394531 335.351562 C 494.453125 335.234375 493.75 335.117188 493.160156 334.882812 C 492.574219 334.648438 491.988281 334.53125 491.515625 334.648438 C 491.046875 334.765625 490.578125 334.648438 490.460938 334.53125 C 490.226562 334.296875 489.988281 334.296875 489.753906 334.296875 C 489.636719 334.296875 489.402344 334.296875 489.285156 334.414062 C 489.285156 334.414062 489.285156 334.296875 489.285156 334.179688 C 489.285156 334.179688 489.285156 334.0625 489.285156 334.0625 C 489.167969 334.0625 489.167969 334.0625 489.050781 334.0625 C 488.699219 334.765625 488.226562 334.765625 487.523438 334.882812 Z M 261.535156 336.171875 C 260.363281 336.410156 259.539062 336.527344 258.953125 336.410156 C 258.367188 336.410156 258.011719 336.410156 258.011719 336.527344 C 257.894531 336.644531 257.660156 336.761719 257.074219 336.878906 C 256.488281 336.996094 256.015625 336.996094 255.78125 336.996094 C 255.429688 336.878906 255.3125 336.996094 255.195312 337.113281 C 255.078125 337.230469 254.960938 337.347656 254.605469 337.347656 C 254.253906 337.347656 254.019531 337.464844 253.902344 337.699219 C 253.667969 337.933594 253.316406 338.050781 252.609375 338.167969 C 251.90625 338.285156 250.964844 338.636719 249.675781 339.222656 C 248.5 339.925781 247.441406 340.160156 246.621094 340.277344 C 245.796875 340.394531 245.328125 340.394531 245.09375 340.511719 C 244.859375 340.628906 244.859375 340.863281 244.859375 341.101562 C 244.859375 341.335938 244.625 341.570312 244.269531 342.039062 C 243.800781 342.390625 243.214844 342.742188 242.507812 342.976562 C 241.6875 343.328125 241.097656 343.679688 240.746094 344.265625 C 240.277344 344.734375 240.042969 344.96875 239.808594 344.96875 C 239.691406 344.96875 239.574219 344.851562 239.457031 344.851562 C 239.457031 344.96875 239.457031 345.085938 239.457031 345.085938 C 239.457031 345.203125 239.457031 345.203125 239.457031 345.320312 C 239.335938 345.320312 239.101562 345.320312 238.984375 345.320312 C 238.632812 345.320312 238.398438 345.558594 237.929688 345.910156 C 237.574219 346.261719 237.339844 346.613281 237.339844 346.847656 C 237.339844 347.082031 237.105469 347.433594 236.519531 348.019531 C 236.050781 348.605469 235.695312 348.839844 235.460938 348.839844 C 235.226562 348.839844 234.992188 349.191406 234.757812 349.777344 C 234.523438 350.367188 234.167969 350.71875 233.816406 350.835938 C 233.464844 350.953125 233.230469 351.1875 233.230469 351.421875 C 233.230469 351.65625 232.996094 351.890625 232.878906 352.007812 C 232.644531 352.125 232.523438 352.359375 232.523438 352.945312 C 232.40625 353.414062 232.40625 353.648438 232.289062 353.648438 C 232.171875 353.648438 232.054688 353.765625 232.054688 354.117188 C 231.9375 354.46875 231.703125 354.824219 231.117188 355.410156 C 230.527344 355.878906 230.292969 356.464844 230.292969 356.816406 C 230.292969 357.050781 230.292969 357.285156 230.292969 357.402344 C 230.292969 357.402344 230.175781 357.402344 230.175781 357.402344 C 230.058594 357.402344 229.941406 357.519531 229.941406 357.871094 C 229.941406 358.222656 229.824219 358.457031 229.589844 358.691406 C 229.472656 358.808594 229.355469 359.164062 229.355469 359.515625 C 229.355469 359.867188 229.238281 360.101562 229.117188 360.21875 C 229 360.335938 228.882812 360.570312 228.882812 360.6875 C 228.882812 360.804688 228.648438 361.390625 228.296875 361.976562 C 227.945312 362.5625 227.710938 363.148438 227.59375 363.621094 C 227.59375 363.972656 227.476562 364.207031 227.355469 364.207031 C 227.238281 364.207031 227.121094 364.558594 227.121094 365.378906 C 227.003906 366.082031 226.886719 366.785156 226.535156 367.253906 C 226.183594 367.722656 226.066406 368.3125 226.183594 368.898438 C 226.183594 369.484375 226.183594 369.835938 225.949219 370.070312 C 225.710938 370.304688 225.59375 370.65625 225.710938 371.007812 C 225.832031 371.359375 225.710938 371.710938 225.59375 371.945312 C 225.476562 372.179688 225.359375 372.648438 225.476562 373.355469 C 225.59375 374.058594 225.59375 374.761719 225.359375 375.582031 C 225.125 376.402344 225.007812 377.578125 225.125 378.984375 C 225.242188 380.507812 225.242188 381.210938 225.359375 381.210938 C 225.476562 381.210938 225.476562 381.5625 225.476562 382.152344 C 225.359375 382.621094 225.476562 382.972656 225.59375 383.089844 C 225.710938 383.207031 225.710938 383.441406 225.710938 384.027344 C 225.710938 384.613281 225.710938 384.847656 225.832031 384.964844 C 225.949219 385.082031 226.066406 385.550781 226.183594 386.609375 C 226.300781 387.664062 226.417969 388.25 226.535156 388.25 C 226.652344 388.367188 226.769531 388.601562 226.769531 389.1875 C 226.886719 389.773438 226.886719 390.125 227.121094 390.359375 C 227.238281 390.59375 227.355469 390.828125 227.355469 391.183594 C 227.355469 391.300781 227.355469 391.535156 227.355469 391.652344 C 227.476562 391.652344 227.476562 391.652344 227.59375 391.652344 C 227.710938 391.652344 227.828125 392.003906 227.945312 392.824219 C 228.0625 393.527344 228.296875 394.113281 228.53125 394.230469 C 228.765625 394.347656 229.117188 394.933594 229.355469 395.875 C 229.589844 396.8125 230.058594 397.632812 230.761719 398.21875 C 231.46875 398.804688 231.820312 399.273438 231.703125 399.390625 C 231.585938 399.507812 231.703125 399.742188 232.054688 399.980469 C 232.40625 400.214844 232.523438 400.449219 232.523438 400.683594 C 232.523438 400.800781 232.644531 401.035156 232.878906 401.035156 C 233.113281 401.035156 233.230469 401.269531 233.464844 401.503906 C 233.582031 401.855469 233.816406 402.089844 234.40625 402.441406 C 234.875 402.792969 235.109375 403.144531 235.226562 403.613281 C 235.226562 403.964844 235.460938 404.316406 235.8125 404.554688 C 236.167969 404.671875 236.519531 405.023438 236.636719 405.375 C 236.871094 405.726562 237.105469 405.960938 237.457031 405.960938 C 237.8125 405.960938 238.046875 406.195312 238.398438 406.664062 C 238.75 407.132812 238.984375 407.367188 239.335938 407.484375 C 239.691406 407.601562 240.160156 407.953125 240.746094 408.539062 C 241.335938 409.246094 241.804688 409.480469 242.273438 409.480469 C 242.625 409.480469 242.980469 409.597656 243.214844 409.949219 C 243.449219 410.300781 243.917969 410.535156 244.503906 410.886719 C 245.09375 411.238281 245.5625 411.472656 245.679688 411.707031 C 245.796875 411.941406 246.269531 412.175781 247.089844 412.292969 C 247.910156 412.410156 248.5 412.644531 248.851562 413.113281 C 249.203125 413.582031 249.554688 413.703125 249.910156 413.703125 C 250.144531 413.703125 250.261719 413.582031 250.496094 413.582031 C 250.496094 413.703125 250.496094 413.703125 250.496094 413.820312 C 250.496094 413.9375 250.847656 414.054688 251.671875 414.171875 C 252.375 414.289062 252.960938 414.289062 253.433594 414.289062 C 253.785156 414.171875 254.019531 414.289062 254.136719 414.40625 C 254.253906 414.523438 254.488281 414.523438 254.84375 414.523438 C 255.3125 414.523438 255.546875 414.640625 255.546875 414.757812 C 255.546875 414.875 256.25 415.109375 257.425781 415.34375 C 258.601562 415.578125 259.304688 415.8125 259.65625 415.8125 C 260.011719 415.8125 260.128906 415.695312 260.363281 415.578125 C 260.597656 415.34375 260.832031 415.34375 261.183594 415.578125 C 261.535156 415.695312 262.125 415.8125 262.945312 415.8125 C 263.769531 415.8125 264.238281 415.695312 264.472656 415.578125 C 264.589844 415.34375 265.179688 415.34375 266.117188 415.578125 C 267.058594 415.695312 267.644531 415.695312 267.996094 415.460938 C 268.347656 415.226562 268.585938 415.109375 269.054688 415.226562 C 269.523438 415.34375 269.875 415.226562 270.230469 414.992188 C 270.582031 414.757812 271.050781 414.640625 271.519531 414.640625 C 272.109375 414.640625 273.164062 414.171875 274.925781 413.347656 C 276.570312 412.410156 277.863281 411.941406 278.566406 411.824219 C 279.390625 411.707031 279.859375 411.472656 280.210938 411.121094 C 280.566406 410.769531 280.917969 410.652344 281.152344 410.652344 C 281.386719 410.769531 282.210938 410.066406 283.5 408.773438 C 284.910156 407.484375 285.617188 406.664062 285.617188 406.546875 C 285.734375 406.3125 286.085938 405.960938 286.90625 405.609375 C 287.730469 405.140625 288.316406 404.671875 288.550781 404.082031 C 288.785156 403.496094 289.023438 403.144531 289.257812 403.027344 C 289.492188 402.910156 289.609375 402.792969 289.609375 402.558594 C 289.609375 402.324219 289.84375 402.089844 290.195312 401.855469 C 290.546875 401.503906 290.785156 401.269531 290.902344 400.917969 C 291.019531 400.566406 291.136719 400.449219 291.253906 400.449219 C 291.371094 400.449219 291.605469 400.097656 292.191406 399.390625 C 292.664062 398.6875 293.015625 397.984375 293.132812 397.28125 C 293.367188 396.578125 293.835938 395.640625 294.542969 394.347656 C 295.363281 393.058594 295.71875 392.355469 295.597656 392.121094 C 295.597656 391.769531 295.597656 391.652344 295.835938 391.535156 C 296.070312 391.417969 296.1875 390.949219 296.304688 390.242188 C 296.539062 389.539062 296.890625 388.71875 297.359375 388.015625 C 297.949219 387.195312 298.183594 386.253906 298.300781 385.082031 C 298.417969 384.027344 298.535156 383.207031 298.769531 382.738281 C 299.003906 382.269531 299.125 381.5625 299.125 380.742188 C 299.125 379.921875 299.359375 378.867188 299.59375 377.460938 C 299.945312 376.050781 300.0625 375.347656 300.0625 375.113281 C 300.0625 374.878906 300.0625 374.761719 300.179688 374.644531 C 300.296875 374.644531 300.179688 374.058594 299.945312 373.003906 C 299.710938 371.945312 299.710938 371.125 299.828125 370.65625 C 300.0625 370.1875 300.0625 369.367188 299.828125 368.546875 C 299.710938 367.605469 299.59375 367.019531 299.710938 366.550781 C 299.710938 366.082031 299.710938 365.613281 299.476562 365.261719 C 299.242188 364.792969 299.125 364.324219 299.242188 363.621094 C 299.359375 362.914062 299.242188 362.5625 299.003906 362.445312 C 298.886719 362.328125 298.652344 362.09375 298.652344 361.742188 C 298.535156 361.390625 298.417969 361.15625 298.300781 361.15625 C 298.066406 361.039062 297.949219 360.6875 297.949219 359.984375 C 297.832031 359.28125 297.714844 358.808594 297.480469 358.691406 C 297.242188 358.574219 296.890625 357.753906 296.421875 356.582031 C 295.953125 355.410156 295.597656 354.46875 295.363281 354 C 295.128906 353.53125 294.894531 353.296875 294.660156 353.179688 C 294.542969 353.179688 294.425781 353.0625 294.308594 353.0625 C 294.308594 353.0625 294.425781 352.945312 294.425781 352.945312 C 294.425781 352.828125 294.425781 352.476562 294.191406 352.007812 C 293.953125 351.539062 293.484375 351.070312 292.898438 350.484375 C 292.3125 349.894531 291.839844 349.542969 291.722656 349.191406 C 291.605469 348.839844 291.488281 348.722656 291.253906 348.722656 C 291.019531 348.722656 290.902344 348.488281 290.667969 348.136719 C 290.429688 347.785156 290.195312 347.550781 289.84375 347.550781 C 289.492188 347.433594 289.257812 347.199219 289.140625 346.613281 C 288.90625 346.027344 288.667969 345.792969 288.316406 345.675781 C 287.964844 345.558594 287.261719 345.085938 286.085938 344.148438 C 284.910156 343.210938 284.207031 342.859375 283.855469 342.742188 C 283.5 342.625 283.265625 342.507812 283.148438 342.273438 C 283.03125 342.039062 282.5625 341.804688 281.738281 341.6875 C 280.917969 341.570312 280.328125 341.21875 279.976562 340.746094 C 279.625 340.277344 279.039062 340.042969 278.214844 339.925781 C 277.394531 339.808594 276.925781 339.691406 276.6875 339.457031 C 276.453125 339.222656 276.21875 339.222656 276.101562 339.339844 C 275.984375 339.457031 275.984375 339.457031 275.867188 339.574219 C 275.867188 339.457031 275.867188 339.457031 275.867188 339.339844 C 275.867188 339.339844 275.867188 339.222656 275.867188 339.105469 C 275.75 339.105469 275.632812 339.222656 275.632812 339.222656 C 275.398438 339.222656 275.160156 339.105469 274.691406 338.753906 C 274.222656 338.402344 273.398438 338.167969 272.34375 338.050781 C 271.285156 337.933594 270.230469 337.699219 269.289062 337.464844 C 268.347656 337.113281 267.527344 337.113281 267.058594 337.113281 C 266.585938 337.230469 266.234375 337.113281 266 336.878906 C 265.765625 336.761719 265.414062 336.527344 264.941406 336.527344 C 263.535156 335.820312 262.710938 335.9375 261.535156 336.171875 Z M 261.535156 336.171875 " fill-opacity="1" fill-rule="nonzero"/></g><g clip-path="url(#ad3f315194)"><path fill="#000000" d="M 374.996094 23.867188 C 568.625 23.867188 726.128906 181.398438 726.128906 374.996094 C 726.128906 380.574219 725.976562 386.121094 725.699219 391.644531 C 725.625 393.460938 725.472656 395.277344 725.347656 397.09375 C 725.117188 400.800781 724.84375 404.484375 724.515625 408.144531 C 724.3125 410.261719 724.085938 412.378906 723.832031 414.5 C 723.457031 417.855469 723.027344 421.183594 722.574219 424.488281 C 722.269531 426.683594 721.941406 428.878906 721.589844 431.046875 C 721.058594 434.328125 720.453125 437.605469 719.824219 440.859375 C 719.421875 442.953125 719.066406 445.070312 718.613281 447.164062 C 717.78125 451.175781 716.820312 455.136719 715.863281 459.097656 C 715.054688 462.328125 714.199219 465.53125 713.316406 468.734375 C 712.53125 471.507812 711.773438 474.28125 710.945312 477.03125 C 710.109375 479.78125 709.203125 482.507812 708.292969 485.230469 C 707.5625 487.398438 706.855469 489.59375 706.074219 491.738281 C 705.039062 494.640625 703.980469 497.515625 702.894531 500.367188 C 702.1875 502.207031 701.457031 504.074219 700.699219 505.890625 C 699.464844 508.941406 698.230469 511.996094 696.917969 514.996094 C 696.335938 516.332031 695.730469 517.621094 695.125 518.957031 C 689.753906 530.835938 683.800781 542.367188 677.191406 553.515625 C 677.164062 553.539062 677.164062 553.589844 677.140625 553.617188 C 674.996094 557.222656 672.777344 560.78125 670.503906 564.285156 C 670.101562 564.941406 669.671875 565.574219 669.269531 566.226562 C 667.027344 569.660156 664.730469 573.0625 662.359375 576.417969 C 661.957031 576.972656 661.578125 577.527344 661.175781 578.082031 C 641.273438 606.058594 617.382812 630.980469 590.34375 652.066406 C 589.839844 652.445312 589.359375 652.847656 588.855469 653.226562 C 585.472656 655.828125 582.042969 658.351562 578.585938 660.820312 C 577.78125 661.402344 576.996094 661.957031 576.191406 662.511719 C 572.835938 664.859375 569.457031 667.152344 566.023438 669.398438 C 565.066406 670.003906 564.132812 670.609375 563.175781 671.238281 C 559.769531 673.410156 556.363281 675.527344 552.882812 677.574219 C 551.898438 678.152344 550.890625 678.707031 549.882812 679.285156 C 546.375 681.304688 542.84375 683.324219 539.261719 685.214844 C 538.429688 685.667969 537.570312 686.070312 536.710938 686.527344 C 524.707031 692.78125 512.296875 698.382812 499.53125 703.25 C 498.722656 703.554688 497.941406 703.878906 497.160156 704.183594 C 494.132812 705.320312 491.054688 706.328125 488.003906 707.386719 C 485.882812 708.117188 483.789062 708.851562 481.644531 709.53125 C 478.871094 710.414062 476.070312 711.222656 473.273438 712.054688 C 470.777344 712.785156 468.277344 713.515625 465.78125 714.199219 C 463.132812 714.902344 460.457031 715.558594 457.785156 716.214844 C 455.0625 716.871094 452.308594 717.527344 449.558594 718.132812 C 446.988281 718.6875 444.414062 719.21875 441.839844 719.722656 C 438.890625 720.304688 435.9375 720.808594 432.960938 721.3125 C 430.492188 721.714844 428.042969 722.121094 425.546875 722.5 C 422.34375 722.949219 419.089844 723.355469 415.859375 723.734375 C 413.5625 724.011719 411.269531 724.289062 408.949219 724.515625 C 405.265625 724.867188 401.582031 725.117188 397.875 725.371094 C 395.957031 725.5 394.039062 725.675781 392.097656 725.777344 C 386.421875 726.054688 380.746094 726.203125 374.996094 726.203125 C 181.394531 726.203125 23.863281 568.675781 23.863281 375.074219 C 23.863281 369.347656 24.015625 363.648438 24.292969 357.996094 C 24.394531 356.054688 24.570312 354.164062 24.671875 352.21875 C 24.921875 348.511719 25.152344 344.804688 25.527344 341.121094 C 25.757812 338.824219 26.035156 336.53125 26.3125 334.234375 C 26.6875 330.980469 27.09375 327.75 27.546875 324.523438 C 27.898438 322.050781 28.304688 319.605469 28.734375 317.132812 C 29.238281 314.15625 29.765625 311.179688 30.320312 308.203125 C 30.828125 305.628906 31.355469 303.082031 31.910156 300.507812 C 32.515625 297.734375 33.148438 294.984375 33.828125 292.261719 C 34.484375 289.585938 35.140625 286.9375 35.847656 284.289062 C 36.527344 281.765625 37.257812 279.246094 37.988281 276.746094 C 38.796875 273.972656 39.605469 271.171875 40.488281 268.421875 C 41.167969 266.253906 41.925781 264.132812 42.65625 261.992188 C 43.691406 258.964844 44.699219 255.910156 45.835938 252.910156 C 46.164062 252.050781 46.515625 251.195312 46.84375 250.335938 C 51.6875 237.648438 57.238281 225.339844 63.46875 213.40625 C 63.921875 212.523438 64.351562 211.640625 64.804688 210.785156 C 66.695312 207.203125 68.6875 203.695312 70.707031 200.214844 C 71.289062 199.207031 71.867188 198.171875 72.472656 197.164062 C 74.515625 193.707031 76.636719 190.300781 78.777344 186.894531 C 79.382812 185.9375 79.988281 184.980469 80.621094 184.019531 C 82.867188 180.589844 85.160156 177.210938 87.507812 173.855469 C 88.0625 173.074219 88.617188 172.289062 89.195312 171.484375 C 91.695312 168.003906 94.214844 164.546875 96.839844 161.167969 C 97.191406 160.710938 97.570312 160.257812 97.925781 159.804688 C 116.390625 136.09375 137.804688 114.804688 161.644531 96.488281 C 161.644531 96.488281 161.667969 96.488281 161.667969 96.464844 C 164.996094 93.917969 168.378906 91.445312 171.808594 88.996094 C 172.4375 88.542969 173.09375 88.089844 173.726562 87.636719 C 177.03125 85.316406 180.386719 83.042969 183.765625 80.824219 C 184.445312 80.394531 185.128906 79.96875 185.78125 79.511719 C 189.289062 77.269531 192.820312 75.046875 196.429688 72.902344 C 196.453125 72.878906 196.476562 72.878906 196.503906 72.855469 C 207.703125 66.21875 219.332031 60.191406 231.265625 54.816406 C 232.5 54.261719 233.710938 53.683594 234.945312 53.152344 C 238.023438 51.816406 241.125 50.53125 244.253906 49.269531 C 246.019531 48.5625 247.785156 47.855469 249.550781 47.175781 C 252.476562 46.066406 255.402344 44.953125 258.355469 43.921875 C 260.421875 43.1875 262.542969 42.484375 264.636719 41.800781 C 267.4375 40.867188 270.210938 39.933594 273.035156 39.078125 C 275.660156 38.269531 278.28125 37.5625 280.929688 36.832031 C 284.386719 35.875 287.867188 34.941406 291.375 34.082031 C 295.160156 33.148438 298.96875 32.242188 302.800781 31.433594 C 304.921875 30.980469 307.089844 30.601562 309.234375 30.199219 C 312.4375 29.59375 315.667969 28.988281 318.921875 28.457031 C 321.113281 28.105469 323.335938 27.777344 325.554688 27.472656 C 328.859375 26.996094 332.164062 26.589844 335.492188 26.210938 C 337.613281 25.960938 339.757812 25.734375 341.875 25.53125 C 345.53125 25.179688 349.214844 24.925781 352.898438 24.699219 C 354.714844 24.574219 356.53125 24.445312 358.347656 24.347656 C 363.875 24.019531 369.398438 23.867188 374.996094 23.867188 M 374.996094 15.792969 C 369.699219 15.792969 364.125 15.945312 357.972656 16.222656 C 356.734375 16.273438 355.5 16.375 354.238281 16.449219 L 352.371094 16.578125 C 347.980469 16.855469 344.398438 17.132812 341.070312 17.433594 C 338.875 17.636719 336.707031 17.886719 334.539062 18.117188 C 331.183594 18.492188 327.777344 18.921875 324.371094 19.402344 C 322.101562 19.730469 319.855469 20.058594 317.585938 20.410156 C 314.078125 20.964844 310.597656 21.621094 307.671875 22.175781 L 305.703125 22.554688 C 304.167969 22.832031 302.628906 23.136719 301.113281 23.4375 C 296.875 24.320312 292.816406 25.304688 289.410156 26.136719 C 286.230469 26.917969 282.824219 27.800781 278.714844 28.960938 L 277.152344 29.390625 C 274.957031 29.996094 272.785156 30.601562 270.617188 31.257812 C 268.019531 32.039062 265.472656 32.898438 262.898438 33.753906 L 262.015625 34.058594 L 261.5625 34.210938 C 259.570312 34.863281 257.574219 35.546875 255.609375 36.226562 C 252.582031 37.285156 249.578125 38.421875 246.601562 39.558594 C 244.785156 40.261719 242.96875 40.96875 241.179688 41.699219 C 238.582031 42.761719 235.152344 44.148438 231.667969 45.660156 C 230.835938 46.015625 230.03125 46.394531 229.222656 46.769531 L 227.910156 47.375 C 215.625 52.925781 203.644531 59.132812 192.34375 65.839844 C 188.988281 67.832031 185.535156 69.976562 181.398438 72.652344 L 180.691406 73.105469 L 179.328125 73.988281 C 175.898438 76.234375 172.441406 78.554688 169.0625 80.949219 L 167.574219 82.011719 L 167.09375 82.363281 C 163.234375 85.113281 159.878906 87.585938 156.851562 89.90625 L 156.828125 89.90625 L 156.703125 90.007812 C 132.359375 108.699219 110.4375 130.492188 91.519531 154.757812 L 91.066406 155.3125 L 90.410156 156.144531 C 87.914062 159.402344 85.339844 162.855469 82.589844 166.714844 L 82.289062 167.144531 C 81.808594 167.800781 81.328125 168.480469 80.875 169.136719 C 78.480469 172.542969 76.109375 176.046875 73.835938 179.53125 C 73.28125 180.386719 72.726562 181.269531 72.171875 182.152344 L 71.972656 182.480469 C 69.550781 186.289062 67.429688 189.722656 65.511719 192.976562 C 65.109375 193.65625 64.730469 194.3125 64.351562 194.992188 L 63.722656 196.101562 C 62.03125 199.054688 59.8125 202.9375 57.667969 206.925781 C 57.390625 207.453125 57.113281 208.007812 56.835938 208.539062 L 56.28125 209.597656 C 49.875 221.90625 44.148438 234.621094 39.277344 247.386719 C 39.152344 247.738281 39 248.066406 38.875 248.417969 C 38.675781 248.949219 38.445312 249.480469 38.246094 250.007812 C 37.285156 252.554688 36.429688 255.152344 35.546875 257.726562 L 35.015625 259.316406 L 34.410156 261.058594 C 33.855469 262.671875 33.300781 264.261719 32.796875 265.875 C 31.988281 268.371094 31.257812 270.871094 30.527344 273.390625 L 30.222656 274.402344 L 30.148438 274.652344 C 29.417969 277.125 28.683594 279.621094 28.027344 282.121094 C 27.296875 284.820312 26.640625 287.542969 25.960938 290.292969 C 25.28125 293.09375 24.625 295.917969 24.019531 298.742188 C 23.464844 301.367188 22.910156 303.964844 22.402344 306.613281 C 21.824219 309.640625 21.269531 312.691406 20.765625 315.746094 C 20.335938 318.265625 19.933594 320.765625 19.554688 323.3125 C 19.074219 326.640625 18.671875 330.046875 18.292969 333.25 L 18.089844 334.992188 C 17.886719 336.757812 17.660156 338.523438 17.511719 340.289062 C 17.132812 344.097656 16.878906 347.832031 16.652344 351.640625 C 16.601562 352.347656 16.550781 353.078125 16.5 353.785156 C 16.398438 355.046875 16.324219 356.28125 16.25 357.542969 C 15.945312 363.722656 15.792969 369.449219 15.792969 375.023438 C 15.792969 573.089844 176.933594 734.226562 374.996094 734.226562 C 380.574219 734.226562 386.296875 734.074219 392.480469 733.773438 C 393.738281 733.722656 395 733.621094 396.261719 733.519531 C 396.96875 733.46875 397.675781 733.417969 398.382812 733.367188 C 402.015625 733.140625 405.898438 732.867188 409.707031 732.511719 C 411.496094 732.335938 413.261719 732.132812 415.03125 731.929688 L 416.769531 731.730469 C 420.453125 731.300781 423.554688 730.921875 426.683594 730.46875 C 429.207031 730.089844 431.726562 729.6875 434.25 729.257812 C 437.304688 728.753906 440.328125 728.222656 443.359375 727.617188 C 446.007812 727.113281 448.628906 726.558594 451.253906 726.003906 C 454.078125 725.398438 456.878906 724.742188 459.679688 724.0625 C 462.402344 723.40625 465.152344 722.722656 467.851562 721.992188 C 470.398438 721.3125 472.894531 720.578125 475.417969 719.847656 L 476.425781 719.546875 C 479 718.789062 481.550781 718.058594 484.097656 717.25 C 485.683594 716.746094 487.222656 716.21875 488.789062 715.660156 L 490.578125 715.03125 L 492.144531 714.5 C 494.765625 713.617188 497.363281 712.734375 499.9375 711.777344 C 500.441406 711.601562 500.921875 711.398438 501.425781 711.195312 C 501.726562 711.070312 502.058594 710.945312 502.359375 710.816406 C 515.222656 705.925781 528.015625 700.175781 540.398438 693.714844 L 541.433594 693.1875 C 541.960938 692.90625 542.492188 692.65625 542.996094 692.378906 C 547.03125 690.234375 550.941406 688.011719 553.867188 686.300781 L 554.925781 685.695312 C 555.609375 685.316406 556.265625 684.9375 556.945312 684.535156 C 560.199219 682.617188 563.65625 680.496094 567.464844 678.050781 L 567.945312 677.746094 C 568.753906 677.21875 569.585938 676.714844 570.390625 676.160156 C 573.871094 673.886719 577.351562 671.542969 580.78125 669.121094 C 581.464844 668.640625 582.144531 668.160156 582.800781 667.683594 L 583.230469 667.378906 C 587.0625 664.628906 590.519531 662.082031 593.722656 659.609375 L 594.632812 658.902344 L 595.238281 658.425781 C 622.957031 636.832031 647.328125 611.378906 667.683594 582.75 L 668.113281 582.144531 L 668.894531 581.0625 C 671.339844 577.605469 673.710938 574.097656 675.957031 570.644531 L 676.765625 569.382812 L 677.242188 568.648438 C 679.917969 564.460938 682.085938 561.007812 684.027344 557.726562 L 684.054688 557.652344 L 684.132812 557.523438 C 690.738281 546.375 696.921875 534.46875 702.445312 522.261719 L 703.050781 520.921875 C 703.453125 520.015625 703.882812 519.132812 704.261719 518.222656 C 705.75 514.820312 707.113281 511.464844 708.144531 508.890625 C 708.902344 507.023438 709.660156 505.132812 710.390625 503.242188 C 711.527344 500.316406 712.609375 497.363281 713.644531 494.410156 C 714.402344 492.242188 715.132812 490.046875 715.863281 487.851562 L 716.242188 486.71875 C 717.050781 484.273438 717.855469 481.824219 718.613281 479.355469 C 719.320312 477.007812 720.003906 474.609375 720.65625 472.238281 L 721.035156 470.851562 C 721.84375 467.949219 722.777344 464.519531 723.660156 460.988281 C 724.84375 456.171875 725.726562 452.386719 726.484375 448.78125 C 726.785156 447.292969 727.0625 445.804688 727.339844 444.316406 L 727.722656 442.324219 C 728.273438 439.394531 728.933594 435.914062 729.511719 432.28125 C 729.863281 430.0625 730.191406 427.816406 730.496094 425.574219 C 730.976562 422.191406 731.402344 418.738281 731.804688 415.355469 C 732.058594 413.1875 732.285156 411.019531 732.488281 408.847656 C 732.789062 405.519531 733.066406 401.9375 733.347656 397.546875 L 733.472656 395.683594 C 733.546875 394.445312 733.648438 393.210938 733.699219 391.976562 C 734.003906 385.820312 734.128906 380.246094 734.128906 374.949219 C 734.199219 176.933594 573.0625 15.792969 374.996094 15.792969 Z M 374.996094 15.792969 " fill-opacity="1" fill-rule="nonzero"/></g><path fill="#625fff" d="M 374.996094 726.128906 C 181.398438 726.128906 23.867188 568.597656 23.867188 374.996094 C 23.867188 181.398438 181.398438 23.867188 374.996094 23.867188 C 568.625 23.867188 726.128906 181.398438 726.128906 374.996094 C 726.128906 568.597656 568.625 726.128906 374.996094 726.128906 Z M 374.996094 726.128906 " fill-opacity="1" fill-rule="nonzero"/><path fill="#625fff" d="M 653.582031 588.375 C 699.039062 529.199219 726.128906 455.214844 726.128906 374.996094 C 726.128906 181.398438 568.625 23.867188 374.996094 23.867188 C 294.78125 23.867188 220.824219 50.984375 161.621094 96.414062 Z M 653.582031 588.375 " fill-opacity="1" fill-rule="nonzero"/><path fill="#625fff" d="M 106.578125 148.984375 C 55.019531 210.101562 23.867188 288.980469 23.867188 374.996094 C 23.867188 568.625 181.398438 726.128906 374.996094 726.128906 C 461.039062 726.128906 539.894531 694.976562 601.011719 643.417969 Z M 106.578125 148.984375 " fill-opacity="1" fill-rule="nonzero"/><path fill="#625fff" d="M 374.996094 686.375 C 203.316406 686.375 63.621094 546.679688 63.621094 374.972656 C 63.621094 203.292969 203.316406 63.597656 374.996094 63.597656 C 546.703125 63.597656 686.375 203.292969 686.375 374.972656 C 686.375 546.679688 546.703125 686.375 374.996094 686.375 Z M 374.996094 686.375 " fill-opacity="1" fill-rule="nonzero"/><path fill="#ffffff" d="M 672.828125 234.46875 C 671.441406 235.101562 666.851562 228.339844 659.914062 217.441406 C 652.800781 206.597656 642.886719 191.816406 630.828125 176.300781 C 618.542969 160.964844 606.511719 147.847656 597.683594 138.464844 C 588.628906 129.078125 583.078125 122.976562 584.089844 121.839844 C 584.996094 120.804688 592.136719 124.792969 602.578125 132.863281 C 613.046875 141.164062 626.390625 153.902344 639.078125 169.792969 C 651.5625 185.835938 660.820312 201.828125 666.394531 213.835938 C 671.820312 225.96875 674.066406 233.890625 672.828125 234.46875 Z M 672.828125 234.46875 " fill-opacity="1" fill-rule="nonzero"/><path fill="#ffffff" d="M 673.710938 213.355469 C 672.449219 214.0625 668.085938 209.421875 662.132812 201.476562 C 656.558594 193.277344 647.804688 182.785156 639.078125 170.550781 C 620.664062 147.34375 603.6875 128.652344 606.058594 126.480469 C 607.09375 125.472656 612.363281 128.953125 620.058594 135.410156 C 627.980469 141.492188 637.3125 152.160156 647.375 164.066406 C 656.382812 176.652344 664.378906 188.183594 668.464844 197.566406 C 672.90625 206.695312 675 212.648438 673.710938 213.355469 Z M 673.710938 213.355469 " fill-opacity="1" fill-rule="nonzero"/><path fill="#000000" d="M 374.996094 123.328125 C 513.761719 123.328125 626.667969 236.234375 626.667969 374.996094 C 626.667969 513.785156 513.757812 626.667969 374.996094 626.667969 C 236.234375 626.667969 123.328125 513.757812 123.328125 374.996094 C 123.328125 236.234375 236.234375 123.328125 374.996094 123.328125 M 374.996094 115.257812 C 231.769531 115.257812 115.257812 231.769531 115.257812 374.996094 C 115.257812 518.226562 231.769531 634.738281 374.996094 634.738281 C 518.226562 634.738281 634.738281 518.222656 634.738281 374.996094 C 634.738281 231.769531 518.226562 115.257812 374.996094 115.257812 Z M 374.996094 115.257812 " fill-opacity="1" fill-rule="nonzero"/><path fill="#ffffff" d="M 374.996094 626.667969 C 236.234375 626.667969 123.328125 513.757812 123.328125 374.996094 C 123.328125 236.234375 236.234375 123.328125 374.996094 123.328125 C 513.761719 123.328125 626.667969 236.234375 626.667969 374.996094 C 626.667969 513.761719 513.761719 626.667969 374.996094 626.667969 Z M 374.996094 626.667969 " fill-opacity="1" fill-rule="nonzero"/><path fill="#ffffff" d="M 350.203125 162.050781 C 488.964844 162.050781 601.871094 274.957031 601.871094 413.71875 C 601.871094 455.261719 591.679688 494.464844 573.769531 529.046875 C 606.867188 486.414062 626.640625 432.988281 626.640625 374.972656 C 626.640625 236.210938 513.734375 123.300781 374.972656 123.300781 C 277.757812 123.300781 193.277344 178.773438 151.378906 259.667969 C 197.488281 200.367188 269.457031 162.050781 350.203125 162.050781 Z M 350.203125 162.050781 " fill-opacity="1" fill-rule="nonzero"/><path fill="#000000" d="M 381.632812 160.660156 C 390.664062 160.660156 398.003906 167.976562 398.003906 177.03125 L 398.003906 376.964844 C 398.003906 385.996094 390.664062 393.335938 381.632812 393.335938 C 372.578125 393.335938 365.261719 385.996094 365.261719 376.964844 L 365.261719 177.03125 C 365.261719 167.976562 372.578125 160.660156 381.632812 160.660156 M 381.632812 152.589844 C 368.160156 152.589844 357.1875 163.5625 357.1875 177.03125 L 357.1875 376.964844 C 357.1875 390.4375 368.160156 401.410156 381.632812 401.410156 C 395.101562 401.410156 406.074219 390.4375 406.074219 376.964844 L 406.074219 177.03125 C 406.074219 163.5625 395.101562 152.589844 381.632812 152.589844 Z M 381.632812 152.589844 " fill-opacity="1" fill-rule="nonzero"/><path fill="#000000" d="M 365.261719 376.941406 C 365.261719 385.972656 372.578125 393.308594 381.632812 393.308594 C 390.664062 393.308594 398.003906 385.972656 398.003906 376.941406 L 398.003906 177.03125 C 398.003906 168.003906 390.664062 160.660156 381.632812 160.660156 C 372.578125 160.660156 365.261719 167.976562 365.261719 177.03125 Z M 365.261719 376.941406 " fill-opacity="1" fill-rule="nonzero"/><path fill="#000000" d="M 375.199219 376.941406 L 375.199219 177.03125 C 375.199219 169.742188 379.992188 163.636719 386.601562 161.519531 C 385.039062 161.015625 383.371094 160.660156 381.632812 160.660156 C 372.578125 160.660156 365.261719 167.976562 365.261719 177.03125 L 365.261719 376.964844 C 365.261719 385.996094 372.578125 393.335938 381.632812 393.335938 C 383.371094 393.335938 385.011719 392.984375 386.601562 392.480469 C 379.992188 390.359375 375.199219 384.253906 375.199219 376.941406 Z M 375.199219 376.941406 " fill-opacity="1" fill-rule="nonzero"/><path fill="#000000" d="M 382.792969 376.941406 C 382.792969 380.167969 384.886719 382.792969 387.460938 382.792969 C 390.058594 382.792969 392.125 380.167969 392.125 376.941406 L 392.125 177.03125 C 392.125 173.804688 390.03125 171.179688 387.460938 171.179688 C 384.886719 171.179688 382.792969 173.804688 382.792969 177.03125 Z M 382.792969 376.941406 " fill-opacity="1" fill-rule="nonzero"/><path fill="#000000" d="M 394.875 358.25 C 403.933594 358.25 411.246094 365.589844 411.246094 374.621094 C 411.246094 383.648438 403.929688 390.988281 394.902344 390.988281 L 194.941406 390.988281 C 185.910156 390.988281 178.597656 383.648438 178.597656 374.621094 C 178.597656 365.589844 185.910156 358.25 194.96875 358.25 L 394.875 358.25 M 394.875 350.175781 L 194.941406 350.175781 C 181.472656 350.175781 170.5 361.148438 170.5 374.621094 C 170.5 388.089844 181.445312 399.0625 194.917969 399.0625 L 394.851562 399.0625 C 401.382812 399.0625 407.511719 396.511719 412.128906 391.898438 C 416.742188 387.28125 419.292969 381.152344 419.265625 374.621094 C 419.316406 361.125 408.34375 350.175781 394.875 350.175781 Z M 394.875 350.175781 " fill-opacity="1" fill-rule="nonzero"/><path fill="#000000" d="M 394.875 390.964844 C 403.90625 390.964844 411.246094 383.625 411.246094 374.59375 C 411.246094 365.539062 403.929688 358.226562 394.875 358.226562 L 194.941406 358.226562 C 185.910156 358.226562 178.570312 365.566406 178.570312 374.59375 C 178.570312 383.625 185.886719 390.964844 194.941406 390.964844 Z M 394.875 390.964844 " fill-opacity="1" fill-rule="nonzero"/><path fill="#000000" d="M 394.875 381.027344 L 194.941406 381.027344 C 187.652344 381.027344 181.546875 376.234375 179.429688 369.625 C 178.925781 371.1875 178.570312 372.855469 178.570312 374.59375 C 178.570312 383.625 185.886719 390.964844 194.941406 390.964844 L 394.875 390.964844 C 403.90625 390.964844 411.246094 383.625 411.246094 374.59375 C 411.246094 372.851562 410.894531 371.1875 410.386719 369.625 C 408.292969 376.234375 402.164062 381.027344 394.875 381.027344 Z M 394.875 381.027344 " fill-opacity="1" fill-rule="nonzero"/><path fill="#000000" d="M 381.226562 335.648438 C 402.921875 335.648438 420.605469 353.304688 420.605469 374.996094 C 420.605469 396.691406 402.945312 414.347656 381.226562 414.347656 C 359.511719 414.347656 341.878906 396.691406 341.878906 374.996094 C 341.878906 353.28125 359.535156 335.648438 381.226562 335.648438 M 381.226562 327.574219 C 355.070312 327.574219 333.804688 348.839844 333.804688 374.996094 C 333.804688 401.15625 355.070312 422.421875 381.226562 422.421875 C 407.386719 422.421875 428.675781 401.15625 428.675781 374.996094 C 428.675781 348.839844 407.386719 327.574219 381.226562 327.574219 Z M 381.226562 327.574219 " fill-opacity="1" fill-rule="nonzero"/><path fill="#000000" d="M 381.226562 414.347656 C 359.535156 414.347656 341.878906 396.691406 341.878906 374.996094 C 341.878906 353.28125 359.535156 335.648438 381.226562 335.648438 C 402.921875 335.648438 420.605469 353.304688 420.605469 374.996094 C 420.605469 396.691406 402.945312 414.347656 381.226562 414.347656 Z M 381.226562 414.347656 " fill-opacity="1" fill-rule="nonzero"/><path fill="#000000" d="M 409.707031 373.914062 C 405.117188 377.292969 396.617188 373.585938 390.761719 365.664062 C 384.910156 357.71875 383.902344 348.511719 388.519531 345.105469 C 393.109375 341.726562 401.636719 345.410156 407.464844 353.355469 C 413.316406 361.300781 414.324219 370.507812 409.707031 373.914062 Z M 409.707031 373.914062 " fill-opacity="1" fill-rule="nonzero"/><path fill="#ffffff" d="M 404.585938 363.570312 C 402.140625 365.363281 397.625 363.417969 394.523438 359.183594 C 391.417969 354.96875 390.890625 350.050781 393.335938 348.257812 C 395.785156 346.46875 400.300781 348.4375 403.402344 352.648438 C 406.503906 356.886719 407.035156 361.78125 404.585938 363.570312 Z M 404.585938 363.570312 " fill-opacity="1" fill-rule="nonzero"/><path fill="#000000" d="M 401.105469 398.003906 C 379.414062 398.003906 361.753906 380.34375 361.753906 358.652344 C 361.753906 351.136719 363.898438 344.121094 367.582031 338.144531 C 352.597656 343.71875 341.878906 358.097656 341.878906 374.996094 C 341.878906 396.691406 359.535156 414.347656 381.226562 414.347656 C 395.429688 414.347656 407.839844 406.78125 414.777344 395.480469 C 410.515625 397.070312 405.921875 398.003906 401.105469 398.003906 Z M 401.105469 398.003906 " fill-opacity="1" fill-rule="nonzero"/></svg>